<svg xmlns="http://www.w3.org/2000/svg" viewBox="0 0 654 125">
	<defs>
		<style>
			.cls-1{fill:#00ACC1;}.cls-2{fill:#FFFFFF;}
		</style>
	</defs>
	<title>
		logo_white_filled
	</title>
	<g id="Layer_2" data-name="Layer 2">
		<g id="Layer_1-2" data-name="Layer 1">
			<path class="cls-1" d="M10,0H372V125H10A10,10,0,0,1,0,115V10A10,10,0,0,1,10,0Z" />
			<path class="cls-2" d="M644,125H282V0H644a10,10,0,0,1,10,10V115A10,10,0,0,1,644,125Z" />
			<path class="cls-2" d="M282,5V120H10a5,5,0,0,1-5-5V10a5,5,0,0,1,5-5H282m5-5H10A10,10,0,0,0,0,10V115a10,10,0,0,0,10,10H287V0Z" />
			<path class="cls-1" d="M333.23,29H309.91c-1.27.07-1.68.48-1.68,1.79V98.48c0,1.19.49,1.68,1.68,1.68h11.87c1.29,0,1.68-.39,1.68-1.68v-17a4.34,4.34,0,0,1,4.68-4.68h5.09c17.76,0,25-6.94,25-23.94S351,29,333.23,29Zm.64,32.65h-5.72a4.39,4.39,0,0,1-4.68-4.68V48.88a4.34,4.34,0,0,1,4.68-4.68h5.72c5.17,0,9.13.64,9.13,8.71S339,61.61,333.86,61.61Z" />
			<path class="cls-1" d="M404.25,100.16h11.87c1.24,0,1.68-.44,1.68-1.68V30.64c0-1.29-.39-1.68-1.68-1.68H404.25c-1.19,0-1.68.49-1.68,1.68v26.5a4.34,4.34,0,0,1-4.68,4.68H387.71A4.39,4.39,0,0,1,383,57.14V30.64c0-1.19-.49-1.68-1.68-1.68H369.48c-1.29,0-1.68.39-1.68,1.68V98.48c0,1.19.49,1.68,1.68,1.68h11.87c1.24,0,1.68-.44,1.68-1.68V81.74a4.34,4.34,0,0,1,4.68-4.68h10.18a4.3,4.3,0,0,1,4.68,4.68V98.48C402.57,99.68,403.05,100.16,404.25,100.16Z" />
			<path class="cls-1" d="M485.14,29.33c-.11-.18-.56-.37-1.29-.37H468.69a2,2,0,0,0-2.2,1.46l-7.86,19.74a2.36,2.36,0,0,1-2.14,1.66h0a2.32,2.32,0,0,1-2.11-1.61l-7.87-19.77A2,2,0,0,0,444.31,29H429c-.73,0-1.18.18-1.29.37s-.1.56.21,1.2L447.06,73a4,4,0,0,1,.34,1.89V98.48c0,1.19.49,1.68,1.68,1.68h14.84c1.24,0,1.68-.44,1.68-1.68V74.85A4.09,4.09,0,0,1,466,72.9l18.95-42.34C485.24,29.88,485.24,29.48,485.14,29.33Z" />
			<path class="cls-1" d="M517.79,57.43c-6.26-2.51-11.2-4.5-11.88-8.29a4.85,4.85,0,0,1,1.15-4,8.47,8.47,0,0,1,6.58-2.65c5.63,0,9.83,3.28,10.7,8.35a2.15,2.15,0,0,0,.55,1.37,1.65,1.65,0,0,0,1.16.06l12.07-2.65c1.39-.31,1.63-1,1.58-1.95-.4-4.76-3.46-20.42-26.06-20.42-8,0-14.19,2.2-18.39,6.54a21.11,21.11,0,0,0-5.66,13.86c0,14.43,12,19,21.68,22.7,6.06,2.31,11.29,4.3,12.2,8.4a5,5,0,0,1-1.12,4.2c-1.76,2.2-5.1,3.57-8.72,3.57-6,0-10.35-3.79-10.82-9.43a2,2,0,0,0-.49-1.33,1,1,0,0,0-.6-.15,3.25,3.25,0,0,0-.62.07l-11.95,2.64c-1.39.31-1.64,1-1.58,2,.41,6.45,3.78,21.48,26.06,21.48,25.63,0,27.23-20.24,27.23-20.44C540.86,66.71,528.07,61.56,517.79,57.43Z" />
			<rect class="cls-1" x="551.49" y="28.96" width="15.02" height="71.2" rx="1.68" ry="1.68" />
			<path class="cls-1" d="M629.27,51.31c0-11.07-4.36-24.26-25.11-24.26s-25.11,13.19-25.11,24.26v26.5c0,11.07,4.36,24.26,25.11,24.26s25.11-13.19,25.11-24.26ZM614,72.2c0,6.86,0,14.64-9.87,14.64s-9.87-7.78-9.87-14.64V56.93c0-6.86,0-14.64,9.87-14.64S614,50.07,614,56.93Z" />
			<path class="cls-2" d="M82,29.33c-.11-.18-.56-.37-1.29-.37H65.52a2,2,0,0,0-2.2,1.46L55.47,50.17a2.36,2.36,0,0,1-2.14,1.66h0a2.32,2.32,0,0,1-2.11-1.61L43.35,30.46A2,2,0,0,0,41.14,29H25.88c-.73,0-1.18.18-1.29.37s-.1.56.21,1.2L43.89,73a4,4,0,0,1,.34,1.89V98.48c0,1.19.49,1.68,1.68,1.68H60.75c1.24,0,1.68-.44,1.68-1.68V74.85a4.09,4.09,0,0,1,.37-1.94L81.75,30.56C82.07,29.88,82.07,29.48,82,29.33Z" />
			<path class="cls-2" d="M137.91,51.31c0-11.07-4.36-24.26-25.11-24.26S87.69,40.25,87.69,51.31v26.5c0,11.07,4.36,24.26,25.11,24.26s25.11-13.19,25.11-24.26ZM122.67,72.2c0,6.86,0,14.64-9.87,14.64s-9.87-7.78-9.87-14.64V56.93c0-6.86,0-14.64,9.87-14.64s9.87,7.78,9.87,14.64Z" />
			<path class="cls-2" d="M200,30.64c0-1.29-.39-1.68-1.68-1.68H186.47c-1.24,0-1.68.44-1.68,1.68V72.2c0,6.86,0,14.64-9.87,14.64S165,79.06,165,72.2V30.64c0-1.29-.39-1.68-1.68-1.68H151.49c-1.24,0-1.68.44-1.68,1.68V77.81c0,11.07,4.36,24.26,25.11,24.26S200,88.88,200,77.81Z" />
			<path class="cls-2" d="M254.72,75.62a2.6,2.6,0,0,1,.81-3.14c5.09-3.65,7.46-9.87,7.46-19.58,0-17-7.24-23.94-25-23.94H214.77A1.67,1.67,0,0,0,213,30.75V98.38a1.67,1.67,0,0,0,1.79,1.79h11.87a1.67,1.67,0,0,0,1.79-1.79V81.63a4.68,4.68,0,0,1,4.79-4.79h4.24a2.56,2.56,0,0,1,2.1,1.2l.08.14,11,21.31a1.18,1.18,0,0,0,1.11.67h12.08a2.51,2.51,0,0,0,2.25-1.1,2.41,2.41,0,0,0-.07-2.42Zm-16.1-14h-5.41a4.68,4.68,0,0,1-4.79-4.79V49a4.68,4.68,0,0,1,4.79-4.79h5.41c5.17,0,9.13.64,9.13,8.71S243.79,61.61,238.62,61.61Z" />
		</g>
	</g>
</svg>
